HIERARCHY
ROOT Pelvis
{
	OFFSET 0.000000 0.000000 0.000000
	CHANNELS 6 Xposition Yposition Zposition Xrotation Yrotation Zrotation
	JOINT LeftUpLeg_virtual
	{
		OFFSET 0.000000 0.000000 0.000000
		CHANNELS 3 Xrotation Yrotation Zrotation
		JOINT LeftUpLeg
		{
			OFFSET 18.735201 -5.666702 -4.541200
			CHANNELS 3 Xrotation Yrotation Zrotation
			JOINT LeftLeg
			{
				OFFSET -0.021200 -31.938179 0.493100
				CHANNELS 3 Xrotation Yrotation Zrotation
				JOINT LeftFoot
				{
					OFFSET 0.021200 -31.938179 -4.336299
					CHANNELS 3 Xrotation Yrotation Zrotation
					JOINT LeftToeBase
					{
						OFFSET 0.943001 -26.722000 15.023500
						CHANNELS 3 Xrotation Yrotation Zrotation
						End Site
						{
							OFFSET 0 0 0
						}
					}
				}
			}
		}
	}
	JOINT RightUpLeg_virtual
	{
		OFFSET 0.000000 0.000000 0.000000
		CHANNELS 3 Xrotation Yrotation Zrotation
		JOINT RightUpLeg
		{
			OFFSET -18.735201 -5.666702 -4.541200
			CHANNELS 3 Xrotation Yrotation Zrotation
			JOINT RightLeg
			{
				OFFSET 0.018946 -31.938133 0.493100
				CHANNELS 3 Xrotation Yrotation Zrotation
				JOINT RightFoot
				{
					OFFSET -0.018946 -31.938126 -4.336299
					CHANNELS 3 Xrotation Yrotation Zrotation
					JOINT RightToeBase
					{
						OFFSET -0.943001 -26.722004 15.023500
						CHANNELS 3 Xrotation Yrotation Zrotation
						End Site
						{
							OFFSET 0 0 0
						}
					}
				}
			}
		}
	}
	JOINT Hips_virtual
	{
		OFFSET 0.000000 0.000000 0.000000
		CHANNELS 3 Xrotation Yrotation Zrotation
		JOINT Hips
		{
			OFFSET -0.000000 -0.000000 -0.000000
			CHANNELS 3 Xrotation Yrotation Zrotation
			JOINT Spine
			{
				OFFSET 0.000000 10.199997 -0.299500
				CHANNELS 3 Xrotation Yrotation Zrotation
				JOINT Spine1
				{
					OFFSET 0.000000 11.900002 -1.516600
					CHANNELS 3 Xrotation Yrotation Zrotation
					JOINT Spine2
					{
						OFFSET 0.000000 13.600006 -2.842500
						CHANNELS 3 Xrotation Yrotation Zrotation
						JOINT Neck_virtual
						{
							OFFSET 0.000000 0.000000 0.000000
							CHANNELS 3 Xrotation Yrotation Zrotation
							JOINT Neck
							{
								OFFSET 0.000000 9.624100 -2.890100
								CHANNELS 3 Xrotation Yrotation Zrotation
								JOINT Head
								{
									OFFSET 0.000000 14.068802 -1.351900
									CHANNELS 3 Xrotation Yrotation Zrotation
									End Site
									{
										OFFSET 0 0 0
									}
								}
							}
						}
						JOINT LeftShoulder_virtual
						{
							OFFSET 0.000000 0.000000 0.000000
							CHANNELS 3 Xrotation Yrotation Zrotation
							JOINT LeftShoulder
							{
								OFFSET 15.263000 10.923401 -0.547700
								CHANNELS 3 Xrotation Yrotation Zrotation
								JOINT LeftArm
								{
									OFFSET 25.438599 -2.830597 -13.032500
									CHANNELS 3 Xrotation Yrotation Zrotation
									JOINT LeftForeArm
									{
										OFFSET 29.960503 0.000000 0.000000
										CHANNELS 3 Xrotation Yrotation Zrotation
										JOINT LeftHand
										{
											OFFSET 27.849251 0.000000 0.000000
											CHANNELS 3 Xrotation Yrotation Zrotation
											End Site
											{
												OFFSET 0 0 0
											}
										}
									}
								}
							}
						}
						JOINT RightShoulder_virtual
						{
							OFFSET 0.000000 0.000000 0.000000
							CHANNELS 3 Xrotation Yrotation Zrotation
							JOINT RightShoulder
							{
								OFFSET -15.263000 10.923401 -0.547700
								CHANNELS 3 Xrotation Yrotation Zrotation
								JOINT RightArm
								{
									OFFSET -25.438599 -2.830597 -13.032500
									CHANNELS 3 Xrotation Yrotation Zrotation
									JOINT RightForeArm
									{
										OFFSET -29.960503 0.000000 0.000000
										CHANNELS 3 Xrotation Yrotation Zrotation
										JOINT RightHand
										{
											OFFSET -27.849251 0.000000 0.000000
											CHANNELS 3 Xrotation Yrotation Zrotation
											End Site
											{
												OFFSET 0 0 0
											}
										}
									}
								}
							}
						}
					}
				}
			}
		}
	}
}
MOTION
Frames: 4
Frame Time: 0.03333333
-0.038368 93.856583 3.842512 0.000000 0.000000 0.000000 7.973599 -6.024872 -1.490947 -30.391002 10.102985 14.535804 35.598488 1.235095 0.044211 -12.155391 1.203152 -4.176347 0.000000 0.000000 0.000000 8.294431 -6.166850 5.619825 -18.766443 -8.141498 -9.106001 27.663629 -4.746716 -2.948643 -19.580192 -7.390546 3.125826 0.000000 0.000000 0.000000 -0.762362 -2.331514 0.139537 -2.354494 2.439902 -3.277272 5.271338 1.005915 2.304939 1.398243 0.534585 1.074514 0.000000 0.000000 0.000000 3.594570 0.304655 0.917484 0.004690 -0.182143 0.451838 0.000000 0.000000 0.000000 2.446409 -0.540959 -0.437554 0.133688 -10.254987 -8.062047 2.304424 -4.079997 -57.072606 3.632529 -35.350337 -5.336027 0.000000 0.000000 0.000000 3.595476 0.626696 2.106697 0.644851 10.559970 13.994863 9.282874 8.722980 51.058874 7.207985 36.338813 2.389693 0.000000 0.000000 0.000000 
0.089241 93.732513 3.572697 0.000000 0.000000 0.000000 8.165022 -6.731688 -1.645588 -30.341647 10.072175 14.361811 34.600068 1.126885 0.039182 -12.948540 1.128243 -4.303130 0.000000 0.000000 0.000000 8.338899 -6.325425 6.174932 -18.841541 -8.325885 -8.557205 26.813147 -4.805662 -3.348095 -20.368322 -7.265799 2.367435 0.000000 0.000000 0.000000 -1.884444 -3.272179 -0.623028 -0.359955 2.938855 -3.817720 5.072162 0.521902 2.287012 1.316632 0.518963 1.420475 0.000000 0.000000 0.000000 3.857716 0.303743 0.923702 0.177587 -0.122621 0.454192 0.000000 0.000000 0.000000 2.020329 -0.837939 -0.234453 0.751799 -10.935445 -8.239255 3.311532 -2.979074 -57.050326 4.445099 -33.253186 -5.127489 0.000000 0.000000 0.000000 3.185731 0.862089 2.226800 0.456588 11.481140 14.872160 9.475713 9.059063 50.811751 7.133610 37.319037 2.180279 0.000000 0.000000 0.000000 
0.183895 94.022835 3.563204 0.000000 0.000000 0.000000 8.597248 -4.786323 -1.966612 -29.794805 10.735369 14.233055 33.753654 1.363696 0.124493 -13.511856 1.370261 -4.063431 0.000000 0.000000 0.000000 8.274498 -5.839789 6.071894 -18.748302 -8.140776 -8.564676 26.173654 -4.905772 -3.544746 -20.741445 -7.282635 1.880341 0.000000 0.000000 0.000000 -0.704145 -3.059511 0.314184 -1.377769 4.553252 -2.688776 6.086826 0.341361 1.483861 0.933209 0.421068 1.514767 0.000000 0.000000 0.000000 3.960052 0.160387 0.934946 0.235865 -0.221596 0.399754 0.000000 0.000000 0.000000 1.851111 -0.740185 -0.112377 0.832140 -12.676747 -8.479734 4.309585 -2.638176 -56.555995 5.242944 -30.785602 -4.830591 0.000000 0.000000 0.000000 2.883826 0.878490 2.118081 0.671263 10.873234 14.368329 8.678735 7.128913 52.044477 6.339533 33.620107 2.806921 0.000000 0.000000 0.000000 
0.212025 94.396889 3.110262 0.000000 0.000000 0.000000 7.590782 -7.456384 -2.267973 -30.850038 9.988277 13.602933 34.764208 0.985001 0.171600 -12.783082 0.932269 -4.258950 0.000000 0.000000 0.000000 8.573544 -5.479786 6.502912 -18.275699 -8.162391 -8.016322 27.241885 -5.183189 -3.660771 -19.941357 -7.434809 1.482008 0.000000 0.000000 0.000000 -1.423339 -2.801365 -0.264312 0.027093 3.746367 -2.890815 5.483441 -0.409294 2.212528 1.343059 0.453678 1.329759 0.000000 0.000000 0.000000 3.734923 0.033550 1.001517 0.195429 -0.221874 0.358844 0.000000 0.000000 0.000000 2.041775 -1.250387 -0.115543 0.645808 -12.553999 -8.119790 4.180585 -2.001874 -57.284482 4.892080 -30.408316 -5.452270 0.000000 0.000000 0.000000 3.038238 0.842602 2.118666 0.595309 10.415977 15.106555 9.518364 6.272640 52.226290 6.810337 34.465353 2.645093 0.000000 0.000000 0.000000 
